<svg xmlns="http://www.w3.org/2000/svg" width="40" height="40" fill="none"><path fill="#EE2020" d="M19.8 3.3c-9.099 0-16.5 7.403-16.5 16.5 0 9.097 7.401 16.5 16.5 16.5s16.5-7.403 16.5-16.5c0-9.097-7.401-16.5-16.5-16.5Zm0 29.333c-7.075 0-12.833-5.756-12.833-12.833S12.725 6.967 19.8 6.967 32.633 12.723 32.633 19.8 26.875 32.633 19.8 32.633ZM21.096 19.8l4.851-4.851a.92.92 0 0 0 0-1.296.92.92 0 0 0-1.296 0l-4.851 4.85-4.851-4.852a.917.917 0 0 0-1.296 1.296l4.85 4.853-4.85 4.851a.917.917 0 0 0 1.296 1.298l4.851-4.853 4.851 4.851a.918.918 0 1 0 1.298-1.294L21.096 19.8Z"/></svg>