<svg xmlns="http://www.w3.org/2000/svg" width="40" height="40" fill="none"><path fill="#49D8AD" d="m17.49 27.39 11.633-11.633-2.31-2.31-9.323 9.323-4.702-4.703-2.31 2.31 7.012 7.013Zm2.31 8.91c-2.283 0-4.428-.433-6.435-1.3-2.008-.866-3.754-2.041-5.239-3.526-1.485-1.485-2.66-3.232-3.526-5.239-.867-2.008-1.3-4.152-1.3-6.435 0-2.283.433-4.428 1.3-6.435.866-2.008 2.041-3.754 3.526-5.239 1.485-1.485 3.232-2.66 5.239-3.527C15.373 3.733 17.517 3.3 19.8 3.3c2.282 0 4.427.433 6.435 1.299 2.008.866 3.754 2.042 5.239 3.527 1.485 1.485 2.66 3.232 3.526 5.239.867 2.008 1.3 4.152 1.3 6.435 0 2.282-.433 4.427-1.3 6.435-.866 2.008-2.041 3.754-3.526 5.239-1.485 1.485-3.232 2.66-5.239 3.526-2.008.867-4.152 1.3-6.435 1.3Zm0-3.3c3.685 0 6.806-1.279 9.364-3.836C31.72 26.606 33 23.485 33 19.8c0-3.685-1.279-6.806-3.836-9.364C26.606 7.88 23.485 6.6 19.8 6.6c-3.685 0-6.806 1.279-9.364 3.836C7.88 12.994 6.6 16.115 6.6 19.8c0 3.685 1.279 6.806 3.836 9.364C12.994 31.72 16.115 33 19.8 33Z"/></svg>